<mxfile host="app.diagrams.net" modified="2024-01-08T21:04:33.096Z" agent="Mozilla/5.0 (Windows NT 10.0; Win64; x64) AppleWebKit/537.36 (KHTML, like Gecko) Chrome/120.0.0.0 Safari/537.36" etag="oLXgU1A-6tOLD1cdXDhX" version="22.1.17" type="device">
  <diagram id="DTverVttlDTBrXVBLfVz" name="Página-1">
    <mxGraphModel dx="1982" dy="342" grid="0" gridSize="10" guides="1" tooltips="1" connect="1" arrows="1" fold="1" page="0" pageScale="1" pageWidth="827" pageHeight="1169" math="0" shadow="0">
      <root>
        <mxCell id="0" />
        <mxCell id="1" parent="0" />
        <mxCell id="Z-ogfSPe9vWLpHwpSJG5-8" value="&lt;b&gt;Medicina&lt;br&gt;1&lt;br&gt;&lt;/b&gt;" style="text;html=1;align=center;verticalAlign=middle;whiteSpace=wrap;rounded=0;" parent="1" vertex="1">
          <mxGeometry x="209" y="167" width="60" height="31" as="geometry" />
        </mxCell>
        <mxCell id="TgOCkQb1jk0l3Reb4bXe-6" value="&lt;font style=&quot;font-size: 11px;&quot;&gt;0 Virus&lt;br style=&quot;border-color: var(--border-color);&quot;&gt;&lt;/font&gt;&lt;font style=&quot;font-size: 11px;&quot;&gt;&lt;font style=&quot;font-size: 11px;&quot;&gt;1 Medicina&amp;nbsp;&lt;br style=&quot;border-color: var(--border-color);&quot;&gt;2 Tratamiento&lt;br&gt;3 Lanzar Organo&lt;br&gt;4 Pasar Turno&lt;/font&gt;&lt;br&gt;&lt;/font&gt;" style="rhombus;whiteSpace=wrap;html=1;" parent="1" vertex="1">
          <mxGeometry x="-142" y="116" width="183" height="97" as="geometry" />
        </mxCell>
        <mxCell id="TgOCkQb1jk0l3Reb4bXe-10" value="J X" style="rounded=0;whiteSpace=wrap;html=1;" parent="1" vertex="1">
          <mxGeometry x="-89.5" y="61" width="78" height="37" as="geometry" />
        </mxCell>
        <mxCell id="TgOCkQb1jk0l3Reb4bXe-11" value="" style="endArrow=classic;html=1;rounded=0;exitX=0.5;exitY=1;exitDx=0;exitDy=0;entryX=0.5;entryY=0;entryDx=0;entryDy=0;" parent="1" source="TgOCkQb1jk0l3Reb4bXe-10" target="TgOCkQb1jk0l3Reb4bXe-6" edge="1">
          <mxGeometry width="50" height="50" relative="1" as="geometry">
            <mxPoint x="-337.5" y="349" as="sourcePoint" />
            <mxPoint x="-50.5" y="100" as="targetPoint" />
          </mxGeometry>
        </mxCell>
        <mxCell id="TgOCkQb1jk0l3Reb4bXe-14" value="&lt;font style=&quot;font-size: 12px;&quot;&gt;¿Mano J1 Organo?&lt;/font&gt;" style="rhombus;whiteSpace=wrap;html=1;fontSize=16;" parent="1" vertex="1">
          <mxGeometry x="-137" y="256" width="173" height="80" as="geometry" />
        </mxCell>
        <mxCell id="TgOCkQb1jk0l3Reb4bXe-15" value="" style="endArrow=classic;html=1;rounded=0;fontSize=12;startSize=8;endSize=8;curved=1;exitX=0.5;exitY=1;exitDx=0;exitDy=0;" parent="1" source="TgOCkQb1jk0l3Reb4bXe-6" target="TgOCkQb1jk0l3Reb4bXe-14" edge="1">
          <mxGeometry width="50" height="50" relative="1" as="geometry">
            <mxPoint x="-157" y="578" as="sourcePoint" />
            <mxPoint x="-107" y="528" as="targetPoint" />
          </mxGeometry>
        </mxCell>
        <mxCell id="TgOCkQb1jk0l3Reb4bXe-16" value="&lt;b&gt;Lanzar Organo&lt;br&gt;3&lt;br&gt;&lt;/b&gt;" style="text;html=1;strokeColor=none;fillColor=none;align=center;verticalAlign=middle;whiteSpace=wrap;rounded=0;" parent="1" vertex="1">
          <mxGeometry x="-55" y="228" width="107" height="30" as="geometry" />
        </mxCell>
        <mxCell id="TgOCkQb1jk0l3Reb4bXe-19" value="J1" style="rounded=0;whiteSpace=wrap;html=1;fontSize=10;" parent="1" vertex="1">
          <mxGeometry x="-14" y="336" width="99" height="26.5" as="geometry" />
        </mxCell>
        <mxCell id="TgOCkQb1jk0l3Reb4bXe-20" value="" style="endArrow=classic;html=1;rounded=0;fontSize=10;exitX=1;exitY=0.5;exitDx=0;exitDy=0;entryX=0.5;entryY=0;entryDx=0;entryDy=0;" parent="1" source="TgOCkQb1jk0l3Reb4bXe-14" target="TgOCkQb1jk0l3Reb4bXe-19" edge="1">
          <mxGeometry width="50" height="50" relative="1" as="geometry">
            <mxPoint x="38" y="311" as="sourcePoint" />
            <mxPoint x="132.5" y="456.25" as="targetPoint" />
          </mxGeometry>
        </mxCell>
        <mxCell id="TgOCkQb1jk0l3Reb4bXe-21" value="No" style="text;html=1;strokeColor=none;fillColor=none;align=center;verticalAlign=middle;whiteSpace=wrap;rounded=0;" parent="1" vertex="1">
          <mxGeometry x="20" y="300" width="60" height="30" as="geometry" />
        </mxCell>
        <mxCell id="TgOCkQb1jk0l3Reb4bXe-22" value="" style="endArrow=classic;html=1;rounded=0;fontSize=12;startSize=8;endSize=8;curved=1;exitX=0.5;exitY=1;exitDx=0;exitDy=0;entryX=0.5;entryY=0;entryDx=0;entryDy=0;" parent="1" source="TgOCkQb1jk0l3Reb4bXe-14" target="TgOCkQb1jk0l3Reb4bXe-24" edge="1">
          <mxGeometry width="50" height="50" relative="1" as="geometry">
            <mxPoint x="-158" y="505" as="sourcePoint" />
            <mxPoint x="-50" y="407" as="targetPoint" />
          </mxGeometry>
        </mxCell>
        <mxCell id="TgOCkQb1jk0l3Reb4bXe-23" value="Si" style="text;html=1;strokeColor=none;fillColor=none;align=center;verticalAlign=middle;whiteSpace=wrap;rounded=0;" parent="1" vertex="1">
          <mxGeometry x="-95" y="336" width="60" height="30" as="geometry" />
        </mxCell>
        <mxCell id="TgOCkQb1jk0l3Reb4bXe-24" value="&lt;font style=&quot;font-size: 12px;&quot;&gt;Selecciona organo a poner en mesa&lt;/font&gt;" style="rounded=0;whiteSpace=wrap;html=1;fontSize=16;" parent="1" vertex="1">
          <mxGeometry x="-138.5" y="383" width="176" height="60" as="geometry" />
        </mxCell>
        <mxCell id="TgOCkQb1jk0l3Reb4bXe-25" value="&lt;font style=&quot;font-size: 12px;&quot;&gt;¿Hay 4 órganos sanos &lt;br&gt;en mesa?&lt;/font&gt;" style="rhombus;whiteSpace=wrap;html=1;fontSize=16;" parent="1" vertex="1">
          <mxGeometry x="-123.5" y="509.25" width="146" height="80" as="geometry" />
        </mxCell>
        <mxCell id="TgOCkQb1jk0l3Reb4bXe-27" value="Roba Carta" style="rounded=0;whiteSpace=wrap;html=1;fontSize=10;" parent="1" vertex="1">
          <mxGeometry x="-101" y="466" width="101" height="19" as="geometry" />
        </mxCell>
        <mxCell id="TgOCkQb1jk0l3Reb4bXe-28" value="" style="endArrow=classic;html=1;rounded=0;fontSize=12;startSize=8;endSize=8;curved=1;exitX=0.5;exitY=1;exitDx=0;exitDy=0;entryX=0.5;entryY=0;entryDx=0;entryDy=0;" parent="1" source="TgOCkQb1jk0l3Reb4bXe-24" target="TgOCkQb1jk0l3Reb4bXe-27" edge="1">
          <mxGeometry width="50" height="50" relative="1" as="geometry">
            <mxPoint x="-132" y="567" as="sourcePoint" />
            <mxPoint x="-82" y="517" as="targetPoint" />
          </mxGeometry>
        </mxCell>
        <mxCell id="TgOCkQb1jk0l3Reb4bXe-29" value="" style="endArrow=classic;html=1;rounded=0;fontSize=12;startSize=8;endSize=8;curved=1;exitX=0.5;exitY=1;exitDx=0;exitDy=0;entryX=0.5;entryY=0;entryDx=0;entryDy=0;" parent="1" source="TgOCkQb1jk0l3Reb4bXe-27" target="TgOCkQb1jk0l3Reb4bXe-25" edge="1">
          <mxGeometry width="50" height="50" relative="1" as="geometry">
            <mxPoint x="-232" y="578" as="sourcePoint" />
            <mxPoint x="-182" y="528" as="targetPoint" />
          </mxGeometry>
        </mxCell>
        <mxCell id="TgOCkQb1jk0l3Reb4bXe-30" value="Fin" style="rounded=1;whiteSpace=wrap;html=1;fontSize=10;fillColor=#dae8fc;gradientColor=#7ea6e0;strokeColor=#6c8ebf;" parent="1" vertex="1">
          <mxGeometry x="-155" y="575" width="63" height="15" as="geometry" />
        </mxCell>
        <mxCell id="TgOCkQb1jk0l3Reb4bXe-32" value="&lt;font style=&quot;font-size: 12px;&quot;&gt;No&lt;/font&gt;" style="text;html=1;strokeColor=none;fillColor=none;align=center;verticalAlign=middle;whiteSpace=wrap;rounded=0;fontSize=16;" parent="1" vertex="1">
          <mxGeometry x="-167" y="541" width="60" height="30" as="geometry" />
        </mxCell>
        <mxCell id="TgOCkQb1jk0l3Reb4bXe-33" value="" style="endArrow=classic;html=1;rounded=0;fontSize=10;exitX=0.5;exitY=1;exitDx=0;exitDy=0;entryX=0.5;entryY=0;entryDx=0;entryDy=0;" parent="1" source="TgOCkQb1jk0l3Reb4bXe-25" target="TgOCkQb1jk0l3Reb4bXe-36" edge="1">
          <mxGeometry width="50" height="50" relative="1" as="geometry">
            <mxPoint x="-49.5" y="595" as="sourcePoint" />
            <mxPoint x="-49" y="633" as="targetPoint" />
          </mxGeometry>
        </mxCell>
        <mxCell id="TgOCkQb1jk0l3Reb4bXe-34" value="Sí" style="text;html=1;strokeColor=none;fillColor=none;align=center;verticalAlign=middle;whiteSpace=wrap;rounded=0;" parent="1" vertex="1">
          <mxGeometry x="-69" y="587" width="60" height="30" as="geometry" />
        </mxCell>
        <mxCell id="TgOCkQb1jk0l3Reb4bXe-36" value="&lt;font style=&quot;font-size: 12px;&quot;&gt;¿De distinto color?&lt;/font&gt;" style="rhombus;whiteSpace=wrap;html=1;fontSize=16;" parent="1" vertex="1">
          <mxGeometry x="-135.5" y="620" width="170" height="80" as="geometry" />
        </mxCell>
        <mxCell id="TgOCkQb1jk0l3Reb4bXe-37" value="Fin" style="rounded=1;whiteSpace=wrap;html=1;fontSize=10;fillColor=#dae8fc;gradientColor=#7ea6e0;strokeColor=#6c8ebf;" parent="1" vertex="1">
          <mxGeometry x="-167" y="687" width="63" height="15" as="geometry" />
        </mxCell>
        <mxCell id="TgOCkQb1jk0l3Reb4bXe-41" value="GANADOR" style="rounded=1;whiteSpace=wrap;html=1;fontSize=10;fillColor=#fff2cc;strokeColor=#d6b656;gradientColor=#ffd966;" parent="1" vertex="1">
          <mxGeometry x="-82" y="729" width="63" height="15" as="geometry" />
        </mxCell>
        <mxCell id="TgOCkQb1jk0l3Reb4bXe-42" value="" style="endArrow=classic;html=1;rounded=0;fontSize=10;exitX=0.5;exitY=1;exitDx=0;exitDy=0;entryX=0.5;entryY=0;entryDx=0;entryDy=0;" parent="1" source="TgOCkQb1jk0l3Reb4bXe-36" target="TgOCkQb1jk0l3Reb4bXe-41" edge="1">
          <mxGeometry width="50" height="50" relative="1" as="geometry">
            <mxPoint x="-51" y="709" as="sourcePoint" />
            <mxPoint x="-197" y="784" as="targetPoint" />
          </mxGeometry>
        </mxCell>
        <mxCell id="TgOCkQb1jk0l3Reb4bXe-43" value="&lt;font style=&quot;font-size: 12px;&quot;&gt;Si&lt;/font&gt;" style="text;html=1;strokeColor=none;fillColor=none;align=center;verticalAlign=middle;whiteSpace=wrap;rounded=0;fontSize=16;" parent="1" vertex="1">
          <mxGeometry x="-67" y="694" width="60" height="30" as="geometry" />
        </mxCell>
        <mxCell id="TgOCkQb1jk0l3Reb4bXe-44" value="&lt;font style=&quot;font-size: 12px;&quot;&gt;¿Mano J1 Medicina?&lt;/font&gt;" style="rhombus;whiteSpace=wrap;html=1;fontSize=16;" parent="1" vertex="1">
          <mxGeometry x="199.5" y="203" width="173" height="80" as="geometry" />
        </mxCell>
        <mxCell id="TgOCkQb1jk0l3Reb4bXe-46" value="" style="endArrow=classic;html=1;rounded=0;fontSize=12;startSize=8;endSize=8;curved=1;exitX=0.5;exitY=1;exitDx=0;exitDy=0;entryX=0.5;entryY=0;entryDx=0;entryDy=0;" parent="1" source="TgOCkQb1jk0l3Reb4bXe-44" target="TgOCkQb1jk0l3Reb4bXe-231" edge="1">
          <mxGeometry width="50" height="50" relative="1" as="geometry">
            <mxPoint x="405" y="371" as="sourcePoint" />
            <mxPoint x="285.5" y="304.9999999999998" as="targetPoint" />
          </mxGeometry>
        </mxCell>
        <mxCell id="TgOCkQb1jk0l3Reb4bXe-47" value="" style="endArrow=classic;html=1;rounded=0;fontSize=12;startSize=8;endSize=8;entryX=0.5;entryY=0;entryDx=0;entryDy=0;exitX=1;exitY=0.5;exitDx=0;exitDy=0;" parent="1" source="TgOCkQb1jk0l3Reb4bXe-6" target="TgOCkQb1jk0l3Reb4bXe-44" edge="1">
          <mxGeometry width="50" height="50" relative="1" as="geometry">
            <mxPoint x="102" y="251" as="sourcePoint" />
            <mxPoint x="152" y="201" as="targetPoint" />
            <Array as="points">
              <mxPoint x="286" y="165" />
            </Array>
          </mxGeometry>
        </mxCell>
        <mxCell id="TgOCkQb1jk0l3Reb4bXe-49" value="Reintento ==1" style="rounded=0;whiteSpace=wrap;html=1;fontSize=10;shape=rhombus;perimeter=rhombusPerimeter;" parent="1" vertex="1">
          <mxGeometry x="371" y="281" width="99" height="26.5" as="geometry" />
        </mxCell>
        <mxCell id="TgOCkQb1jk0l3Reb4bXe-50" value="" style="endArrow=classic;html=1;rounded=0;fontSize=10;exitX=1;exitY=0.5;exitDx=0;exitDy=0;entryX=0.5;entryY=0;entryDx=0;entryDy=0;" parent="1" source="TgOCkQb1jk0l3Reb4bXe-44" target="TgOCkQb1jk0l3Reb4bXe-49" edge="1">
          <mxGeometry width="50" height="50" relative="1" as="geometry">
            <mxPoint x="420" y="241" as="sourcePoint" />
            <mxPoint x="516.5" y="401.25" as="targetPoint" />
            <Array as="points">
              <mxPoint x="420" y="243" />
            </Array>
          </mxGeometry>
        </mxCell>
        <mxCell id="TgOCkQb1jk0l3Reb4bXe-51" value="No" style="text;html=1;align=center;verticalAlign=middle;whiteSpace=wrap;rounded=0;" parent="1" vertex="1">
          <mxGeometry x="404" y="245" width="60" height="30" as="geometry" />
        </mxCell>
        <mxCell id="TgOCkQb1jk0l3Reb4bXe-52" value="Si" style="text;html=1;align=center;verticalAlign=middle;whiteSpace=wrap;rounded=0;" parent="1" vertex="1">
          <mxGeometry x="242" y="286" width="60" height="30" as="geometry" />
        </mxCell>
        <mxCell id="TgOCkQb1jk0l3Reb4bXe-169" value="&lt;b&gt;Virus&lt;br&gt;0&lt;br&gt;&lt;/b&gt;" style="text;html=1;strokeColor=none;fillColor=none;align=center;verticalAlign=middle;whiteSpace=wrap;rounded=0;" parent="1" vertex="1">
          <mxGeometry x="-476" y="168" width="91.5" height="30" as="geometry" />
        </mxCell>
        <mxCell id="TgOCkQb1jk0l3Reb4bXe-176" value="" style="endArrow=classic;html=1;rounded=0;fontSize=12;startSize=8;endSize=8;exitX=0;exitY=0.5;exitDx=0;exitDy=0;entryX=0.5;entryY=0;entryDx=0;entryDy=0;" parent="1" source="TgOCkQb1jk0l3Reb4bXe-6" target="1lf3eCI1uoVPspsiMMXi-1" edge="1">
          <mxGeometry width="50" height="50" relative="1" as="geometry">
            <mxPoint x="-136.5" y="164.75" as="sourcePoint" />
            <mxPoint x="-472.5" y="209" as="targetPoint" />
            <Array as="points">
              <mxPoint x="-472.5" y="165.25" />
            </Array>
          </mxGeometry>
        </mxCell>
        <mxCell id="TgOCkQb1jk0l3Reb4bXe-231" value="&lt;font style=&quot;font-size: 12px;&quot;&gt;¿Mesa J1 Organo?&lt;/font&gt;" style="rhombus;whiteSpace=wrap;html=1;fontSize=16;" parent="1" vertex="1">
          <mxGeometry x="199.5" y="330" width="173" height="80" as="geometry" />
        </mxCell>
        <mxCell id="TgOCkQb1jk0l3Reb4bXe-232" value="" style="endArrow=classic;html=1;rounded=0;fontSize=12;startSize=8;endSize=8;curved=1;exitX=0.5;exitY=1;exitDx=0;exitDy=0;entryX=0.5;entryY=0;entryDx=0;entryDy=0;" parent="1" source="TgOCkQb1jk0l3Reb4bXe-231" target="kO1tTzlL6511T0l_Ank2-173" edge="1">
          <mxGeometry width="50" height="50" relative="1" as="geometry">
            <mxPoint x="402.5" y="501.25" as="sourcePoint" />
            <mxPoint x="286" y="447" as="targetPoint" />
          </mxGeometry>
        </mxCell>
        <mxCell id="TgOCkQb1jk0l3Reb4bXe-235" value="No" style="text;html=1;align=center;verticalAlign=middle;whiteSpace=wrap;rounded=0;" parent="1" vertex="1">
          <mxGeometry x="332" y="325" width="60" height="30" as="geometry" />
        </mxCell>
        <mxCell id="TgOCkQb1jk0l3Reb4bXe-236" value="Si" style="text;html=1;align=center;verticalAlign=middle;whiteSpace=wrap;rounded=0;" parent="1" vertex="1">
          <mxGeometry x="242" y="410" width="60" height="30" as="geometry" />
        </mxCell>
        <mxCell id="kO1tTzlL6511T0l_Ank2-3" value="&lt;font style=&quot;font-size: 12px;&quot;&gt;Organo+&lt;/font&gt;" style="rounded=0;whiteSpace=wrap;html=1;fontSize=16;" parent="1" vertex="1">
          <mxGeometry x="1170" y="1044.75" width="92" height="22" as="geometry" />
        </mxCell>
        <mxCell id="kO1tTzlL6511T0l_Ank2-4" value="" style="endArrow=classic;html=1;rounded=0;fontSize=12;startSize=8;endSize=8;curved=1;entryX=0;entryY=0.5;entryDx=0;entryDy=0;exitX=1;exitY=0.5;exitDx=0;exitDy=0;" parent="1" source="kO1tTzlL6511T0l_Ank2-3" target="kO1tTzlL6511T0l_Ank2-5" edge="1">
          <mxGeometry width="50" height="50" relative="1" as="geometry">
            <mxPoint x="1143" y="1145.75" as="sourcePoint" />
            <mxPoint x="1282" y="1055.7500000000002" as="targetPoint" />
          </mxGeometry>
        </mxCell>
        <mxCell id="kO1tTzlL6511T0l_Ank2-5" value="Descarta Medicina" style="rounded=0;whiteSpace=wrap;html=1;fontSize=10;fillColor=#f8cecc;strokeColor=#b85450;" parent="1" vertex="1">
          <mxGeometry x="1282" y="1046.25" width="101" height="19" as="geometry" />
        </mxCell>
        <mxCell id="kO1tTzlL6511T0l_Ank2-6" value="Roba Carta" style="rounded=0;whiteSpace=wrap;html=1;fontSize=10;fillColor=#d5e8d4;strokeColor=#82b366;" parent="1" vertex="1">
          <mxGeometry x="1401" y="1046.25" width="101" height="19" as="geometry" />
        </mxCell>
        <mxCell id="kO1tTzlL6511T0l_Ank2-7" value="" style="endArrow=classic;html=1;rounded=0;fontSize=12;startSize=8;endSize=8;curved=1;entryX=0;entryY=0.5;entryDx=0;entryDy=0;exitX=1;exitY=0.5;exitDx=0;exitDy=0;" parent="1" source="kO1tTzlL6511T0l_Ank2-5" target="kO1tTzlL6511T0l_Ank2-6" edge="1">
          <mxGeometry width="50" height="50" relative="1" as="geometry">
            <mxPoint x="1387.0000000000002" y="1055.7500000000002" as="sourcePoint" />
            <mxPoint x="1325" y="1095.75" as="targetPoint" />
          </mxGeometry>
        </mxCell>
        <mxCell id="kO1tTzlL6511T0l_Ank2-8" value="Fin" style="rounded=1;whiteSpace=wrap;html=1;fontSize=10;fillColor=#dae8fc;gradientColor=#7ea6e0;strokeColor=#6c8ebf;" parent="1" vertex="1">
          <mxGeometry x="1522.5" y="1048.25" width="63" height="15" as="geometry" />
        </mxCell>
        <mxCell id="kO1tTzlL6511T0l_Ank2-9" value="" style="endArrow=classic;html=1;rounded=0;fontSize=12;startSize=8;endSize=8;curved=1;entryX=0;entryY=0.5;entryDx=0;entryDy=0;exitX=1;exitY=0.5;exitDx=0;exitDy=0;" parent="1" source="kO1tTzlL6511T0l_Ank2-6" target="kO1tTzlL6511T0l_Ank2-8" edge="1">
          <mxGeometry width="50" height="50" relative="1" as="geometry">
            <mxPoint x="1447" y="1141.75" as="sourcePoint" />
            <mxPoint x="1514.5" y="1055.7499999999998" as="targetPoint" />
          </mxGeometry>
        </mxCell>
        <mxCell id="kO1tTzlL6511T0l_Ank2-10" style="edgeStyle=none;curved=1;rounded=0;orthogonalLoop=1;jettySize=auto;html=1;entryX=1;entryY=0.5;entryDx=0;entryDy=0;fontSize=12;startSize=8;endSize=8;" parent="1" source="kO1tTzlL6511T0l_Ank2-5" target="kO1tTzlL6511T0l_Ank2-5" edge="1">
          <mxGeometry relative="1" as="geometry" />
        </mxCell>
        <mxCell id="kO1tTzlL6511T0l_Ank2-11" value="Reintento 1" style="rounded=0;whiteSpace=wrap;html=1;fontSize=10;" parent="1" vertex="1">
          <mxGeometry x="778.5" y="1123" width="99" height="26.5" as="geometry" />
        </mxCell>
        <mxCell id="kO1tTzlL6511T0l_Ank2-12" value="¿Organo +?" style="rhombus;whiteSpace=wrap;html=1;" parent="1" vertex="1">
          <mxGeometry x="897" y="934" width="177" height="80" as="geometry" />
        </mxCell>
        <mxCell id="kO1tTzlL6511T0l_Ank2-13" value="¿Organo *?" style="rhombus;whiteSpace=wrap;html=1;" parent="1" vertex="1">
          <mxGeometry x="1006" y="1020.5" width="135" height="70.5" as="geometry" />
        </mxCell>
        <mxCell id="kO1tTzlL6511T0l_Ank2-14" value="" style="endArrow=classic;html=1;rounded=0;exitX=1;exitY=0.5;exitDx=0;exitDy=0;entryX=0.5;entryY=0;entryDx=0;entryDy=0;" parent="1" source="kO1tTzlL6511T0l_Ank2-12" target="kO1tTzlL6511T0l_Ank2-13" edge="1">
          <mxGeometry width="50" height="50" relative="1" as="geometry">
            <mxPoint x="909" y="1164.5" as="sourcePoint" />
            <mxPoint x="959" y="1114.5" as="targetPoint" />
          </mxGeometry>
        </mxCell>
        <mxCell id="kO1tTzlL6511T0l_Ank2-15" value="¿Cuantos +?" style="rhombus;whiteSpace=wrap;html=1;" parent="1" vertex="1">
          <mxGeometry x="827" y="1017" width="141" height="80" as="geometry" />
        </mxCell>
        <mxCell id="kO1tTzlL6511T0l_Ank2-16" value="" style="endArrow=classic;html=1;rounded=0;exitX=0.5;exitY=1;exitDx=0;exitDy=0;entryX=0.5;entryY=0;entryDx=0;entryDy=0;" parent="1" source="kO1tTzlL6511T0l_Ank2-15" target="kO1tTzlL6511T0l_Ank2-21" edge="1">
          <mxGeometry width="50" height="50" relative="1" as="geometry">
            <mxPoint x="855" y="1182" as="sourcePoint" />
            <mxPoint x="898" y="1136" as="targetPoint" />
          </mxGeometry>
        </mxCell>
        <mxCell id="kO1tTzlL6511T0l_Ank2-17" value="" style="endArrow=classic;html=1;rounded=0;exitX=0;exitY=0.5;exitDx=0;exitDy=0;entryX=0.5;entryY=0;entryDx=0;entryDy=0;" parent="1" source="kO1tTzlL6511T0l_Ank2-12" target="kO1tTzlL6511T0l_Ank2-15" edge="1">
          <mxGeometry width="50" height="50" relative="1" as="geometry">
            <mxPoint x="704" y="1047.5" as="sourcePoint" />
            <mxPoint x="754" y="997.5" as="targetPoint" />
          </mxGeometry>
        </mxCell>
        <mxCell id="kO1tTzlL6511T0l_Ank2-18" value="1" style="text;html=1;strokeColor=none;fillColor=none;align=center;verticalAlign=middle;whiteSpace=wrap;rounded=0;" parent="1" vertex="1">
          <mxGeometry x="860" y="1097" width="60" height="30" as="geometry" />
        </mxCell>
        <mxCell id="kO1tTzlL6511T0l_Ank2-19" value="" style="endArrow=classic;html=1;rounded=0;exitX=0;exitY=0.5;exitDx=0;exitDy=0;" parent="1" source="kO1tTzlL6511T0l_Ank2-15" target="kO1tTzlL6511T0l_Ank2-11" edge="1">
          <mxGeometry width="50" height="50" relative="1" as="geometry">
            <mxPoint x="763" y="1185.5" as="sourcePoint" />
            <mxPoint x="827" y="1135.5" as="targetPoint" />
          </mxGeometry>
        </mxCell>
        <mxCell id="kO1tTzlL6511T0l_Ank2-20" value="2" style="text;html=1;strokeColor=none;fillColor=none;align=center;verticalAlign=middle;whiteSpace=wrap;rounded=0;" parent="1" vertex="1">
          <mxGeometry x="788" y="1054" width="60" height="30" as="geometry" />
        </mxCell>
        <mxCell id="kO1tTzlL6511T0l_Ank2-21" value="&lt;font style=&quot;font-size: 12px;&quot;&gt;Organo++&lt;/font&gt;" style="rounded=0;whiteSpace=wrap;html=1;fontSize=16;" parent="1" vertex="1">
          <mxGeometry x="852" y="1199.5" width="92" height="22" as="geometry" />
        </mxCell>
        <mxCell id="kO1tTzlL6511T0l_Ank2-22" value="" style="endArrow=classic;html=1;rounded=0;fontSize=12;startSize=8;endSize=8;curved=1;entryX=0;entryY=0.5;entryDx=0;entryDy=0;exitX=1;exitY=0.5;exitDx=0;exitDy=0;" parent="1" source="kO1tTzlL6511T0l_Ank2-21" target="kO1tTzlL6511T0l_Ank2-23" edge="1">
          <mxGeometry width="50" height="50" relative="1" as="geometry">
            <mxPoint x="825" y="1300.5" as="sourcePoint" />
            <mxPoint x="964" y="1210.5" as="targetPoint" />
          </mxGeometry>
        </mxCell>
        <mxCell id="kO1tTzlL6511T0l_Ank2-23" value="Descarta Medicina" style="rounded=0;whiteSpace=wrap;html=1;fontSize=10;fillColor=#f8cecc;strokeColor=#b85450;" parent="1" vertex="1">
          <mxGeometry x="964" y="1201" width="101" height="19" as="geometry" />
        </mxCell>
        <mxCell id="kO1tTzlL6511T0l_Ank2-24" value="Roba Carta" style="rounded=0;whiteSpace=wrap;html=1;fontSize=10;fillColor=#d5e8d4;strokeColor=#82b366;" parent="1" vertex="1">
          <mxGeometry x="1083" y="1201" width="101" height="19" as="geometry" />
        </mxCell>
        <mxCell id="kO1tTzlL6511T0l_Ank2-25" value="" style="endArrow=classic;html=1;rounded=0;fontSize=12;startSize=8;endSize=8;curved=1;entryX=0;entryY=0.5;entryDx=0;entryDy=0;exitX=1;exitY=0.5;exitDx=0;exitDy=0;" parent="1" source="kO1tTzlL6511T0l_Ank2-23" target="kO1tTzlL6511T0l_Ank2-24" edge="1">
          <mxGeometry width="50" height="50" relative="1" as="geometry">
            <mxPoint x="1069.0000000000002" y="1210.5" as="sourcePoint" />
            <mxPoint x="1007" y="1250.5" as="targetPoint" />
          </mxGeometry>
        </mxCell>
        <mxCell id="kO1tTzlL6511T0l_Ank2-26" value="Fin" style="rounded=1;whiteSpace=wrap;html=1;fontSize=10;fillColor=#dae8fc;gradientColor=#7ea6e0;strokeColor=#6c8ebf;" parent="1" vertex="1">
          <mxGeometry x="1204.5" y="1203" width="63" height="15" as="geometry" />
        </mxCell>
        <mxCell id="kO1tTzlL6511T0l_Ank2-27" value="" style="endArrow=classic;html=1;rounded=0;fontSize=12;startSize=8;endSize=8;curved=1;entryX=0;entryY=0.5;entryDx=0;entryDy=0;exitX=1;exitY=0.5;exitDx=0;exitDy=0;" parent="1" source="kO1tTzlL6511T0l_Ank2-24" target="kO1tTzlL6511T0l_Ank2-26" edge="1">
          <mxGeometry width="50" height="50" relative="1" as="geometry">
            <mxPoint x="1129" y="1296.5" as="sourcePoint" />
            <mxPoint x="1196.5" y="1210.5" as="targetPoint" />
          </mxGeometry>
        </mxCell>
        <mxCell id="kO1tTzlL6511T0l_Ank2-28" style="edgeStyle=none;curved=1;rounded=0;orthogonalLoop=1;jettySize=auto;html=1;entryX=1;entryY=0.5;entryDx=0;entryDy=0;fontSize=12;startSize=8;endSize=8;" parent="1" source="kO1tTzlL6511T0l_Ank2-23" target="kO1tTzlL6511T0l_Ank2-23" edge="1">
          <mxGeometry relative="1" as="geometry" />
        </mxCell>
        <mxCell id="kO1tTzlL6511T0l_Ank2-29" value="Si" style="text;html=1;strokeColor=none;fillColor=none;align=center;verticalAlign=middle;whiteSpace=wrap;rounded=0;" parent="1" vertex="1">
          <mxGeometry x="854" y="979.5" width="60" height="30" as="geometry" />
        </mxCell>
        <mxCell id="kO1tTzlL6511T0l_Ank2-30" value="No" style="text;html=1;strokeColor=none;fillColor=none;align=center;verticalAlign=middle;whiteSpace=wrap;rounded=0;" parent="1" vertex="1">
          <mxGeometry x="1062" y="977.5" width="60" height="30" as="geometry" />
        </mxCell>
        <mxCell id="kO1tTzlL6511T0l_Ank2-31" value="" style="endArrow=classic;html=1;rounded=0;entryX=0;entryY=0.5;entryDx=0;entryDy=0;exitX=1;exitY=0.5;exitDx=0;exitDy=0;" parent="1" source="kO1tTzlL6511T0l_Ank2-13" target="kO1tTzlL6511T0l_Ank2-3" edge="1">
          <mxGeometry width="50" height="50" relative="1" as="geometry">
            <mxPoint x="1026" y="1132.5" as="sourcePoint" />
            <mxPoint x="1076" y="1082.5" as="targetPoint" />
          </mxGeometry>
        </mxCell>
        <mxCell id="kO1tTzlL6511T0l_Ank2-32" value="No" style="text;html=1;strokeColor=none;fillColor=none;align=center;verticalAlign=middle;whiteSpace=wrap;rounded=0;" parent="1" vertex="1">
          <mxGeometry x="1124" y="1030.5" width="60" height="30" as="geometry" />
        </mxCell>
        <mxCell id="kO1tTzlL6511T0l_Ank2-33" value="&lt;font style=&quot;font-size: 12px;&quot;&gt;Organo&lt;/font&gt;" style="rounded=0;whiteSpace=wrap;html=1;fontSize=16;" parent="1" vertex="1">
          <mxGeometry x="1170" y="1101" width="92" height="22" as="geometry" />
        </mxCell>
        <mxCell id="kO1tTzlL6511T0l_Ank2-34" value="" style="endArrow=classic;html=1;rounded=0;fontSize=12;startSize=8;endSize=8;curved=1;entryX=0;entryY=0.5;entryDx=0;entryDy=0;exitX=1;exitY=0.5;exitDx=0;exitDy=0;" parent="1" source="kO1tTzlL6511T0l_Ank2-33" target="kO1tTzlL6511T0l_Ank2-35" edge="1">
          <mxGeometry width="50" height="50" relative="1" as="geometry">
            <mxPoint x="1143" y="1202" as="sourcePoint" />
            <mxPoint x="1282" y="1112.0000000000002" as="targetPoint" />
          </mxGeometry>
        </mxCell>
        <mxCell id="kO1tTzlL6511T0l_Ank2-35" value="Descarta Medicina" style="rounded=0;whiteSpace=wrap;html=1;fontSize=10;fillColor=#f8cecc;strokeColor=#b85450;" parent="1" vertex="1">
          <mxGeometry x="1282" y="1102.5" width="101" height="19" as="geometry" />
        </mxCell>
        <mxCell id="kO1tTzlL6511T0l_Ank2-36" value="Roba Carta" style="rounded=0;whiteSpace=wrap;html=1;fontSize=10;fillColor=#d5e8d4;strokeColor=#82b366;" parent="1" vertex="1">
          <mxGeometry x="1401" y="1102.5" width="101" height="19" as="geometry" />
        </mxCell>
        <mxCell id="kO1tTzlL6511T0l_Ank2-37" value="" style="endArrow=classic;html=1;rounded=0;fontSize=12;startSize=8;endSize=8;curved=1;entryX=0;entryY=0.5;entryDx=0;entryDy=0;exitX=1;exitY=0.5;exitDx=0;exitDy=0;" parent="1" source="kO1tTzlL6511T0l_Ank2-35" target="kO1tTzlL6511T0l_Ank2-36" edge="1">
          <mxGeometry width="50" height="50" relative="1" as="geometry">
            <mxPoint x="1387.0000000000002" y="1112.0000000000002" as="sourcePoint" />
            <mxPoint x="1325" y="1152" as="targetPoint" />
          </mxGeometry>
        </mxCell>
        <mxCell id="kO1tTzlL6511T0l_Ank2-38" value="Fin" style="rounded=1;whiteSpace=wrap;html=1;fontSize=10;fillColor=#dae8fc;gradientColor=#7ea6e0;strokeColor=#6c8ebf;" parent="1" vertex="1">
          <mxGeometry x="1522.5" y="1104.5" width="63" height="15" as="geometry" />
        </mxCell>
        <mxCell id="kO1tTzlL6511T0l_Ank2-39" value="" style="endArrow=classic;html=1;rounded=0;fontSize=12;startSize=8;endSize=8;curved=1;entryX=0;entryY=0.5;entryDx=0;entryDy=0;exitX=1;exitY=0.5;exitDx=0;exitDy=0;" parent="1" source="kO1tTzlL6511T0l_Ank2-36" target="kO1tTzlL6511T0l_Ank2-38" edge="1">
          <mxGeometry width="50" height="50" relative="1" as="geometry">
            <mxPoint x="1447" y="1198" as="sourcePoint" />
            <mxPoint x="1514.5" y="1111.9999999999998" as="targetPoint" />
          </mxGeometry>
        </mxCell>
        <mxCell id="kO1tTzlL6511T0l_Ank2-40" style="edgeStyle=none;curved=1;rounded=0;orthogonalLoop=1;jettySize=auto;html=1;entryX=1;entryY=0.5;entryDx=0;entryDy=0;fontSize=12;startSize=8;endSize=8;" parent="1" source="kO1tTzlL6511T0l_Ank2-35" target="kO1tTzlL6511T0l_Ank2-35" edge="1">
          <mxGeometry relative="1" as="geometry" />
        </mxCell>
        <mxCell id="kO1tTzlL6511T0l_Ank2-41" value="" style="endArrow=classic;html=1;rounded=0;entryX=0;entryY=0.5;entryDx=0;entryDy=0;exitX=0.5;exitY=1;exitDx=0;exitDy=0;" parent="1" source="kO1tTzlL6511T0l_Ank2-13" target="kO1tTzlL6511T0l_Ank2-33" edge="1">
          <mxGeometry width="50" height="50" relative="1" as="geometry">
            <mxPoint x="1141" y="1111.75" as="sourcePoint" />
            <mxPoint x="1076" y="1138.75" as="targetPoint" />
            <Array as="points">
              <mxPoint x="1074" y="1112.5" />
            </Array>
          </mxGeometry>
        </mxCell>
        <mxCell id="kO1tTzlL6511T0l_Ank2-42" value="Si" style="text;html=1;strokeColor=none;fillColor=none;align=center;verticalAlign=middle;whiteSpace=wrap;rounded=0;" parent="1" vertex="1">
          <mxGeometry x="1122" y="1084" width="60" height="30" as="geometry" />
        </mxCell>
        <mxCell id="kO1tTzlL6511T0l_Ank2-173" value="Selecciona medicina" style="rhombus;whiteSpace=wrap;html=1;" parent="1" vertex="1">
          <mxGeometry x="182.5" y="443" width="207" height="80" as="geometry" />
        </mxCell>
        <mxCell id="kO1tTzlL6511T0l_Ank2-174" value="¿Entrada válida?" style="rhombus;whiteSpace=wrap;html=1;" parent="1" vertex="1">
          <mxGeometry x="297" y="516" width="207" height="80" as="geometry" />
        </mxCell>
        <mxCell id="kO1tTzlL6511T0l_Ank2-176" value="" style="endArrow=classic;html=1;rounded=0;entryX=0.5;entryY=0;entryDx=0;entryDy=0;exitX=1;exitY=0.5;exitDx=0;exitDy=0;" parent="1" source="kO1tTzlL6511T0l_Ank2-174" target="kO1tTzlL6511T0l_Ank2-173" edge="1">
          <mxGeometry width="50" height="50" relative="1" as="geometry">
            <mxPoint x="526" y="528" as="sourcePoint" />
            <mxPoint x="576" y="478" as="targetPoint" />
            <Array as="points">
              <mxPoint x="504" y="443" />
            </Array>
          </mxGeometry>
        </mxCell>
        <mxCell id="kO1tTzlL6511T0l_Ank2-177" value="No" style="text;html=1;align=center;verticalAlign=middle;whiteSpace=wrap;rounded=0;" parent="1" vertex="1">
          <mxGeometry x="456" y="443.25" width="60" height="30" as="geometry" />
        </mxCell>
        <mxCell id="kO1tTzlL6511T0l_Ank2-179" value="Selecciona órgano a curar" style="rhombus;whiteSpace=wrap;html=1;" parent="1" vertex="1">
          <mxGeometry x="297" y="632" width="207" height="80" as="geometry" />
        </mxCell>
        <mxCell id="kO1tTzlL6511T0l_Ank2-180" value="" style="endArrow=classic;html=1;rounded=0;exitX=0.5;exitY=1;exitDx=0;exitDy=0;entryX=0.5;entryY=0;entryDx=0;entryDy=0;" parent="1" source="kO1tTzlL6511T0l_Ank2-174" target="kO1tTzlL6511T0l_Ank2-179" edge="1">
          <mxGeometry width="50" height="50" relative="1" as="geometry">
            <mxPoint x="154" y="638" as="sourcePoint" />
            <mxPoint x="204" y="588" as="targetPoint" />
          </mxGeometry>
        </mxCell>
        <mxCell id="kO1tTzlL6511T0l_Ank2-181" value="" style="endArrow=classic;html=1;rounded=0;exitX=1;exitY=0.5;exitDx=0;exitDy=0;entryX=0.5;entryY=0;entryDx=0;entryDy=0;" parent="1" source="kO1tTzlL6511T0l_Ank2-173" target="kO1tTzlL6511T0l_Ank2-174" edge="1">
          <mxGeometry width="50" height="50" relative="1" as="geometry">
            <mxPoint x="395" y="502" as="sourcePoint" />
            <mxPoint x="445" y="452" as="targetPoint" />
            <Array as="points">
              <mxPoint x="401" y="483" />
            </Array>
          </mxGeometry>
        </mxCell>
        <mxCell id="kO1tTzlL6511T0l_Ank2-183" value="Si" style="text;html=1;align=center;verticalAlign=middle;whiteSpace=wrap;rounded=0;" parent="1" vertex="1">
          <mxGeometry x="361" y="596" width="60" height="30" as="geometry" />
        </mxCell>
        <mxCell id="kO1tTzlL6511T0l_Ank2-186" value="¿Entrada válida?" style="rhombus;whiteSpace=wrap;html=1;" parent="1" vertex="1">
          <mxGeometry x="411" y="705" width="207" height="80" as="geometry" />
        </mxCell>
        <mxCell id="kO1tTzlL6511T0l_Ank2-187" value="" style="endArrow=classic;html=1;rounded=0;exitX=1;exitY=0.5;exitDx=0;exitDy=0;entryX=0.5;entryY=0;entryDx=0;entryDy=0;" parent="1" source="kO1tTzlL6511T0l_Ank2-179" target="kO1tTzlL6511T0l_Ank2-186" edge="1">
          <mxGeometry width="50" height="50" relative="1" as="geometry">
            <mxPoint x="504" y="672" as="sourcePoint" />
            <mxPoint x="559" y="641" as="targetPoint" />
            <Array as="points">
              <mxPoint x="515" y="672" />
            </Array>
          </mxGeometry>
        </mxCell>
        <mxCell id="kO1tTzlL6511T0l_Ank2-188" value="" style="endArrow=classic;html=1;rounded=0;entryX=0.5;entryY=0;entryDx=0;entryDy=0;exitX=1;exitY=0.5;exitDx=0;exitDy=0;" parent="1" source="kO1tTzlL6511T0l_Ank2-186" target="kO1tTzlL6511T0l_Ank2-179" edge="1">
          <mxGeometry width="50" height="50" relative="1" as="geometry">
            <mxPoint x="514" y="566" as="sourcePoint" />
            <mxPoint x="296" y="453" as="targetPoint" />
            <Array as="points">
              <mxPoint x="618" y="632" />
            </Array>
          </mxGeometry>
        </mxCell>
        <mxCell id="kO1tTzlL6511T0l_Ank2-189" value="No" style="text;html=1;align=center;verticalAlign=middle;whiteSpace=wrap;rounded=0;" parent="1" vertex="1">
          <mxGeometry x="569" y="632" width="60" height="30" as="geometry" />
        </mxCell>
        <mxCell id="kO1tTzlL6511T0l_Ank2-190" value="¿Organo Multicolor?" style="rhombus;whiteSpace=wrap;html=1;" parent="1" vertex="1">
          <mxGeometry x="442.5" y="809" width="144" height="80" as="geometry" />
        </mxCell>
        <mxCell id="kO1tTzlL6511T0l_Ank2-191" value="¿Medicina Multicolor?" style="rhombus;whiteSpace=wrap;html=1;" parent="1" vertex="1">
          <mxGeometry x="447.5" y="905" width="134" height="80" as="geometry" />
        </mxCell>
        <mxCell id="kO1tTzlL6511T0l_Ank2-192" value="¿Color Organo =&lt;br&gt;Color Medicina?" style="rhombus;whiteSpace=wrap;html=1;" parent="1" vertex="1">
          <mxGeometry x="447.5" y="997" width="134" height="80" as="geometry" />
        </mxCell>
        <mxCell id="kO1tTzlL6511T0l_Ank2-194" value="¿Ningua anterior?" style="rhombus;whiteSpace=wrap;html=1;" parent="1" vertex="1">
          <mxGeometry x="451.5" y="1096" width="126" height="80" as="geometry" />
        </mxCell>
        <mxCell id="kO1tTzlL6511T0l_Ank2-195" value="" style="endArrow=classic;html=1;rounded=0;entryX=0.5;entryY=0;entryDx=0;entryDy=0;exitX=1;exitY=0.5;exitDx=0;exitDy=0;" parent="1" source="kO1tTzlL6511T0l_Ank2-190" target="kO1tTzlL6511T0l_Ank2-12" edge="1">
          <mxGeometry width="50" height="50" relative="1" as="geometry">
            <mxPoint x="536" y="891" as="sourcePoint" />
            <mxPoint x="586" y="841" as="targetPoint" />
          </mxGeometry>
        </mxCell>
        <mxCell id="kO1tTzlL6511T0l_Ank2-196" value="" style="endArrow=classic;html=1;rounded=0;entryX=0.5;entryY=0;entryDx=0;entryDy=0;exitX=1;exitY=0.5;exitDx=0;exitDy=0;" parent="1" source="kO1tTzlL6511T0l_Ank2-191" target="kO1tTzlL6511T0l_Ank2-12" edge="1">
          <mxGeometry width="50" height="50" relative="1" as="geometry">
            <mxPoint x="570" y="990" as="sourcePoint" />
            <mxPoint x="620" y="940" as="targetPoint" />
          </mxGeometry>
        </mxCell>
        <mxCell id="kO1tTzlL6511T0l_Ank2-197" value="" style="endArrow=classic;html=1;rounded=0;entryX=0.5;entryY=0;entryDx=0;entryDy=0;exitX=1;exitY=0.5;exitDx=0;exitDy=0;" parent="1" source="kO1tTzlL6511T0l_Ank2-192" target="kO1tTzlL6511T0l_Ank2-12" edge="1">
          <mxGeometry width="50" height="50" relative="1" as="geometry">
            <mxPoint x="206" y="1110" as="sourcePoint" />
            <mxPoint x="256" y="1060" as="targetPoint" />
          </mxGeometry>
        </mxCell>
        <mxCell id="kO1tTzlL6511T0l_Ank2-198" value="" style="endArrow=classic;html=1;rounded=0;exitX=0.5;exitY=1;exitDx=0;exitDy=0;" parent="1" source="kO1tTzlL6511T0l_Ank2-186" target="kO1tTzlL6511T0l_Ank2-190" edge="1">
          <mxGeometry width="50" height="50" relative="1" as="geometry">
            <mxPoint x="256" y="917" as="sourcePoint" />
            <mxPoint x="306" y="867" as="targetPoint" />
          </mxGeometry>
        </mxCell>
        <mxCell id="kO1tTzlL6511T0l_Ank2-199" value="" style="endArrow=classic;html=1;rounded=0;exitX=0.5;exitY=1;exitDx=0;exitDy=0;" parent="1" source="kO1tTzlL6511T0l_Ank2-190" target="kO1tTzlL6511T0l_Ank2-191" edge="1">
          <mxGeometry width="50" height="50" relative="1" as="geometry">
            <mxPoint x="280" y="970" as="sourcePoint" />
            <mxPoint x="330" y="920" as="targetPoint" />
          </mxGeometry>
        </mxCell>
        <mxCell id="kO1tTzlL6511T0l_Ank2-200" value="" style="endArrow=classic;html=1;rounded=0;exitX=0.5;exitY=1;exitDx=0;exitDy=0;entryX=0.5;entryY=0;entryDx=0;entryDy=0;" parent="1" source="kO1tTzlL6511T0l_Ank2-191" target="kO1tTzlL6511T0l_Ank2-192" edge="1">
          <mxGeometry width="50" height="50" relative="1" as="geometry">
            <mxPoint x="176" y="1083" as="sourcePoint" />
            <mxPoint x="226" y="1033" as="targetPoint" />
          </mxGeometry>
        </mxCell>
        <mxCell id="kO1tTzlL6511T0l_Ank2-201" value="" style="endArrow=classic;html=1;rounded=0;exitX=0.5;exitY=1;exitDx=0;exitDy=0;" parent="1" source="kO1tTzlL6511T0l_Ank2-192" target="kO1tTzlL6511T0l_Ank2-194" edge="1">
          <mxGeometry width="50" height="50" relative="1" as="geometry">
            <mxPoint x="216" y="1190" as="sourcePoint" />
            <mxPoint x="266" y="1140" as="targetPoint" />
          </mxGeometry>
        </mxCell>
        <mxCell id="kO1tTzlL6511T0l_Ank2-202" value="" style="endArrow=classic;html=1;rounded=0;entryX=0;entryY=0.5;entryDx=0;entryDy=0;exitX=1;exitY=0.5;exitDx=0;exitDy=0;" parent="1" source="kO1tTzlL6511T0l_Ank2-194" target="kO1tTzlL6511T0l_Ank2-11" edge="1">
          <mxGeometry width="50" height="50" relative="1" as="geometry">
            <mxPoint x="617" y="1212" as="sourcePoint" />
            <mxPoint x="667" y="1162" as="targetPoint" />
          </mxGeometry>
        </mxCell>
        <mxCell id="kO1tTzlL6511T0l_Ank2-203" value="&lt;b&gt;Defensa&lt;br&gt;1&lt;br&gt;&lt;/b&gt;" style="text;html=1;strokeColor=none;fillColor=none;align=center;verticalAlign=middle;whiteSpace=wrap;rounded=0;" parent="1" vertex="1">
          <mxGeometry x="798" y="1252" width="60" height="30" as="geometry" />
        </mxCell>
        <mxCell id="kO1tTzlL6511T0l_Ank2-204" value="" style="endArrow=classic;html=1;rounded=0;exitX=0.5;exitY=1;exitDx=0;exitDy=0;entryX=0.5;entryY=0;entryDx=0;entryDy=0;" parent="1" source="kO1tTzlL6511T0l_Ank2-11" target="kO1tTzlL6511T0l_Ank2-203" edge="1">
          <mxGeometry width="50" height="50" relative="1" as="geometry">
            <mxPoint x="731" y="1344" as="sourcePoint" />
            <mxPoint x="781" y="1294" as="targetPoint" />
          </mxGeometry>
        </mxCell>
        <mxCell id="kO1tTzlL6511T0l_Ank2-206" value="No" style="text;html=1;align=center;verticalAlign=middle;whiteSpace=wrap;rounded=0;" parent="1" vertex="1">
          <mxGeometry x="464" y="883.5" width="60" height="30" as="geometry" />
        </mxCell>
        <mxCell id="kO1tTzlL6511T0l_Ank2-207" value="No" style="text;html=1;align=center;verticalAlign=middle;whiteSpace=wrap;rounded=0;" parent="1" vertex="1">
          <mxGeometry x="464" y="972" width="60" height="30" as="geometry" />
        </mxCell>
        <mxCell id="kO1tTzlL6511T0l_Ank2-208" value="No" style="text;html=1;align=center;verticalAlign=middle;whiteSpace=wrap;rounded=0;" parent="1" vertex="1">
          <mxGeometry x="466" y="1071" width="60" height="30" as="geometry" />
        </mxCell>
        <mxCell id="kO1tTzlL6511T0l_Ank2-209" value="Si" style="text;html=1;align=center;verticalAlign=middle;whiteSpace=wrap;rounded=0;" parent="1" vertex="1">
          <mxGeometry x="642" y="830" width="60" height="30" as="geometry" />
        </mxCell>
        <mxCell id="kO1tTzlL6511T0l_Ank2-211" value="Si" style="text;html=1;align=center;verticalAlign=middle;whiteSpace=wrap;rounded=0;" parent="1" vertex="1">
          <mxGeometry x="644" y="909.5" width="60" height="30" as="geometry" />
        </mxCell>
        <mxCell id="kO1tTzlL6511T0l_Ank2-212" value="Si" style="text;html=1;align=center;verticalAlign=middle;whiteSpace=wrap;rounded=0;" parent="1" vertex="1">
          <mxGeometry x="644" y="983" width="60" height="30" as="geometry" />
        </mxCell>
        <mxCell id="kO1tTzlL6511T0l_Ank2-213" value="Si" style="text;html=1;align=center;verticalAlign=middle;whiteSpace=wrap;rounded=0;" parent="1" vertex="1">
          <mxGeometry x="648" y="1114" width="60" height="30" as="geometry" />
        </mxCell>
        <mxCell id="NhrjTlY4TIgOb6hpqJ7W-4" value="" style="endArrow=classic;html=1;rounded=0;entryX=0;entryY=0.5;entryDx=0;entryDy=0;exitX=1;exitY=0.5;exitDx=0;exitDy=0;" parent="1" source="TgOCkQb1jk0l3Reb4bXe-231" target="TgOCkQb1jk0l3Reb4bXe-49" edge="1">
          <mxGeometry width="50" height="50" relative="1" as="geometry">
            <mxPoint x="338" y="366" as="sourcePoint" />
            <mxPoint x="388" y="316" as="targetPoint" />
          </mxGeometry>
        </mxCell>
        <mxCell id="NhrjTlY4TIgOb6hpqJ7W-6" value="" style="endArrow=classic;html=1;rounded=0;entryX=1;entryY=0;entryDx=0;entryDy=0;exitX=1;exitY=0.5;exitDx=0;exitDy=0;" parent="1" source="TgOCkQb1jk0l3Reb4bXe-49" target="TgOCkQb1jk0l3Reb4bXe-6" edge="1">
          <mxGeometry width="50" height="50" relative="1" as="geometry">
            <mxPoint x="541" y="185" as="sourcePoint" />
            <mxPoint x="591" y="135" as="targetPoint" />
            <Array as="points">
              <mxPoint x="468" y="137" />
            </Array>
          </mxGeometry>
        </mxCell>
        <mxCell id="NhrjTlY4TIgOb6hpqJ7W-7" value="" style="endArrow=classic;html=1;rounded=0;entryX=1;entryY=0.5;entryDx=0;entryDy=0;exitX=0.5;exitY=1;exitDx=0;exitDy=0;" parent="1" source="TgOCkQb1jk0l3Reb4bXe-49" target="TgOCkQb1jk0l3Reb4bXe-10" edge="1">
          <mxGeometry width="50" height="50" relative="1" as="geometry">
            <mxPoint x="160" y="88" as="sourcePoint" />
            <mxPoint x="210" y="38" as="targetPoint" />
            <Array as="points">
              <mxPoint x="421" y="335" />
              <mxPoint x="492" y="335" />
              <mxPoint x="489" y="75" />
            </Array>
          </mxGeometry>
        </mxCell>
        <mxCell id="NhrjTlY4TIgOb6hpqJ7W-8" value="Si" style="text;html=1;align=center;verticalAlign=middle;whiteSpace=wrap;rounded=0;" parent="1" vertex="1">
          <mxGeometry x="419" y="306" width="60" height="30" as="geometry" />
        </mxCell>
        <mxCell id="NhrjTlY4TIgOb6hpqJ7W-10" value="No" style="text;html=1;align=center;verticalAlign=middle;whiteSpace=wrap;rounded=0;" parent="1" vertex="1">
          <mxGeometry x="419" y="138" width="60" height="30" as="geometry" />
        </mxCell>
        <mxCell id="1lf3eCI1uoVPspsiMMXi-1" value="Virus en mano" style="rhombus;whiteSpace=wrap;html=1;" parent="1" vertex="1">
          <mxGeometry x="-551" y="210" width="158" height="80" as="geometry" />
        </mxCell>
        <mxCell id="AOAk8VnFZfLObsQtrDsE-5" value="Selecciona jugador a atacar" style="rounded=1;whiteSpace=wrap;html=1;" parent="1" vertex="1">
          <mxGeometry x="-558" y="308" width="172" height="22" as="geometry" />
        </mxCell>
        <mxCell id="AOAk8VnFZfLObsQtrDsE-7" value="Dispone órgano &lt;br&gt;para atacar" style="rhombus;whiteSpace=wrap;html=1;" parent="1" vertex="1">
          <mxGeometry x="-552" y="348" width="159" height="79" as="geometry" />
        </mxCell>
        <mxCell id="AOAk8VnFZfLObsQtrDsE-15" value="" style="endArrow=classic;html=1;rounded=0;exitX=0.5;exitY=1;exitDx=0;exitDy=0;entryX=0.5;entryY=0;entryDx=0;entryDy=0;" parent="1" source="1lf3eCI1uoVPspsiMMXi-1" target="AOAk8VnFZfLObsQtrDsE-5" edge="1">
          <mxGeometry width="50" height="50" relative="1" as="geometry">
            <mxPoint x="-567" y="414" as="sourcePoint" />
            <mxPoint x="-517" y="364" as="targetPoint" />
          </mxGeometry>
        </mxCell>
        <mxCell id="AOAk8VnFZfLObsQtrDsE-16" value="" style="endArrow=classic;html=1;rounded=0;exitX=0.5;exitY=1;exitDx=0;exitDy=0;" parent="1" source="AOAk8VnFZfLObsQtrDsE-5" target="AOAk8VnFZfLObsQtrDsE-7" edge="1">
          <mxGeometry width="50" height="50" relative="1" as="geometry">
            <mxPoint x="-615" y="511" as="sourcePoint" />
            <mxPoint x="-565" y="461" as="targetPoint" />
          </mxGeometry>
        </mxCell>
        <mxCell id="AOAk8VnFZfLObsQtrDsE-18" value="" style="endArrow=classic;html=1;rounded=0;exitX=0.5;exitY=1;exitDx=0;exitDy=0;entryX=0.5;entryY=0;entryDx=0;entryDy=0;" parent="1" source="AOAk8VnFZfLObsQtrDsE-7" target="AOAk8VnFZfLObsQtrDsE-107" edge="1">
          <mxGeometry width="50" height="50" relative="1" as="geometry">
            <mxPoint x="-609" y="487" as="sourcePoint" />
            <mxPoint x="-460" y="444" as="targetPoint" />
          </mxGeometry>
        </mxCell>
        <mxCell id="AOAk8VnFZfLObsQtrDsE-20" value="" style="endArrow=classic;html=1;rounded=0;exitX=1;exitY=0.5;exitDx=0;exitDy=0;entryX=0;entryY=0.5;entryDx=0;entryDy=0;" parent="1" source="1lf3eCI1uoVPspsiMMXi-1" target="TgOCkQb1jk0l3Reb4bXe-6" edge="1">
          <mxGeometry width="50" height="50" relative="1" as="geometry">
            <mxPoint x="-360" y="259" as="sourcePoint" />
            <mxPoint x="-310" y="209" as="targetPoint" />
            <Array as="points">
              <mxPoint x="-142" y="247" />
            </Array>
          </mxGeometry>
        </mxCell>
        <mxCell id="AOAk8VnFZfLObsQtrDsE-21" value="No" style="text;html=1;strokeColor=none;fillColor=none;align=center;verticalAlign=middle;whiteSpace=wrap;rounded=0;" parent="1" vertex="1">
          <mxGeometry x="-409" y="223" width="60" height="30" as="geometry" />
        </mxCell>
        <mxCell id="AOAk8VnFZfLObsQtrDsE-22" value="Virus multicolor" style="rhombus;whiteSpace=wrap;html=1;" parent="1" vertex="1">
          <mxGeometry x="-544" y="538" width="144" height="80" as="geometry" />
        </mxCell>
        <mxCell id="AOAk8VnFZfLObsQtrDsE-24" value="" style="endArrow=classic;html=1;rounded=0;entryX=0;entryY=0.5;entryDx=0;entryDy=0;exitX=0.5;exitY=1;exitDx=0;exitDy=0;" parent="1" source="AOAk8VnFZfLObsQtrDsE-7" target="AOAk8VnFZfLObsQtrDsE-5" edge="1">
          <mxGeometry width="50" height="50" relative="1" as="geometry">
            <mxPoint x="-645" y="400" as="sourcePoint" />
            <mxPoint x="-595" y="350" as="targetPoint" />
            <Array as="points">
              <mxPoint x="-584" y="426" />
              <mxPoint x="-584" y="319" />
            </Array>
          </mxGeometry>
        </mxCell>
        <mxCell id="AOAk8VnFZfLObsQtrDsE-25" value="No" style="text;html=1;strokeColor=none;fillColor=none;align=center;verticalAlign=middle;whiteSpace=wrap;rounded=0;" parent="1" vertex="1">
          <mxGeometry x="-561" y="403" width="60" height="30" as="geometry" />
        </mxCell>
        <mxCell id="AOAk8VnFZfLObsQtrDsE-26" value="Sí" style="text;html=1;strokeColor=none;fillColor=none;align=center;verticalAlign=middle;whiteSpace=wrap;rounded=0;" parent="1" vertex="1">
          <mxGeometry x="-487" y="419" width="60" height="30" as="geometry" />
        </mxCell>
        <mxCell id="AOAk8VnFZfLObsQtrDsE-27" value="Sí" style="text;html=1;strokeColor=none;fillColor=none;align=center;verticalAlign=middle;whiteSpace=wrap;rounded=0;" parent="1" vertex="1">
          <mxGeometry x="-487" y="279.25" width="60" height="30" as="geometry" />
        </mxCell>
        <mxCell id="AOAk8VnFZfLObsQtrDsE-28" value="Organo *" style="rhombus;whiteSpace=wrap;html=1;" parent="1" vertex="1">
          <mxGeometry x="-640" y="577.5" width="113" height="80" as="geometry" />
        </mxCell>
        <mxCell id="AOAk8VnFZfLObsQtrDsE-29" value="" style="endArrow=classic;html=1;rounded=0;exitX=0;exitY=0.5;exitDx=0;exitDy=0;entryX=0.5;entryY=0;entryDx=0;entryDy=0;" parent="1" source="AOAk8VnFZfLObsQtrDsE-22" target="AOAk8VnFZfLObsQtrDsE-28" edge="1">
          <mxGeometry width="50" height="50" relative="1" as="geometry">
            <mxPoint x="-679" y="609" as="sourcePoint" />
            <mxPoint x="-791" y="606" as="targetPoint" />
          </mxGeometry>
        </mxCell>
        <mxCell id="AOAk8VnFZfLObsQtrDsE-46" value="&lt;font style=&quot;font-size: 12px;&quot;&gt;Organo**&lt;/font&gt;" style="rounded=0;whiteSpace=wrap;html=1;fontSize=16;" parent="1" vertex="1">
          <mxGeometry x="-741" y="607" width="92" height="22" as="geometry" />
        </mxCell>
        <mxCell id="AOAk8VnFZfLObsQtrDsE-48" value="Descarta Virus" style="rounded=0;whiteSpace=wrap;html=1;fontSize=10;fillColor=#f8cecc;strokeColor=#b85450;" parent="1" vertex="1">
          <mxGeometry x="-967" y="608.5" width="101" height="19" as="geometry" />
        </mxCell>
        <mxCell id="AOAk8VnFZfLObsQtrDsE-49" value="Roba Carta" style="rounded=0;whiteSpace=wrap;html=1;fontSize=10;fillColor=#d5e8d4;strokeColor=#82b366;" parent="1" vertex="1">
          <mxGeometry x="-1078" y="608.5" width="101" height="19" as="geometry" />
        </mxCell>
        <mxCell id="AOAk8VnFZfLObsQtrDsE-51" value="Fin" style="rounded=1;whiteSpace=wrap;html=1;fontSize=10;fillColor=#dae8fc;gradientColor=#7ea6e0;strokeColor=#6c8ebf;" parent="1" vertex="1">
          <mxGeometry x="-1151" y="610.5" width="63" height="15" as="geometry" />
        </mxCell>
        <mxCell id="AOAk8VnFZfLObsQtrDsE-53" style="edgeStyle=none;curved=1;rounded=0;orthogonalLoop=1;jettySize=auto;html=1;entryX=1;entryY=0.5;entryDx=0;entryDy=0;fontSize=12;startSize=8;endSize=8;" parent="1" edge="1">
          <mxGeometry relative="1" as="geometry">
            <mxPoint x="-543.5" y="700.5" as="sourcePoint" />
            <mxPoint x="-543.5" y="700.5" as="targetPoint" />
          </mxGeometry>
        </mxCell>
        <mxCell id="AOAk8VnFZfLObsQtrDsE-54" value="Descarta Organo" style="rounded=0;whiteSpace=wrap;html=1;fontSize=10;fillColor=#f8cecc;strokeColor=#b85450;" parent="1" vertex="1">
          <mxGeometry x="-854" y="608.5" width="101" height="19" as="geometry" />
        </mxCell>
        <mxCell id="AOAk8VnFZfLObsQtrDsE-68" value="" style="endArrow=classic;html=1;rounded=0;entryX=1;entryY=0.5;entryDx=0;entryDy=0;exitX=0;exitY=0.5;exitDx=0;exitDy=0;" parent="1" source="AOAk8VnFZfLObsQtrDsE-28" target="AOAk8VnFZfLObsQtrDsE-46" edge="1">
          <mxGeometry width="50" height="50" relative="1" as="geometry">
            <mxPoint x="-657" y="634.5" as="sourcePoint" />
            <mxPoint x="-662" y="669.5" as="targetPoint" />
          </mxGeometry>
        </mxCell>
        <mxCell id="AOAk8VnFZfLObsQtrDsE-69" value="" style="endArrow=classic;html=1;rounded=0;exitX=0;exitY=0.5;exitDx=0;exitDy=0;entryX=1;entryY=0.5;entryDx=0;entryDy=0;" parent="1" source="AOAk8VnFZfLObsQtrDsE-46" target="AOAk8VnFZfLObsQtrDsE-54" edge="1">
          <mxGeometry width="50" height="50" relative="1" as="geometry">
            <mxPoint x="-797" y="725.5" as="sourcePoint" />
            <mxPoint x="-747" y="675.5" as="targetPoint" />
          </mxGeometry>
        </mxCell>
        <mxCell id="AOAk8VnFZfLObsQtrDsE-70" value="" style="endArrow=classic;html=1;rounded=0;entryX=1;entryY=0.5;entryDx=0;entryDy=0;exitX=0;exitY=0.5;exitDx=0;exitDy=0;" parent="1" source="AOAk8VnFZfLObsQtrDsE-49" target="AOAk8VnFZfLObsQtrDsE-51" edge="1">
          <mxGeometry width="50" height="50" relative="1" as="geometry">
            <mxPoint x="-1095" y="685.5" as="sourcePoint" />
            <mxPoint x="-1045" y="635.5" as="targetPoint" />
          </mxGeometry>
        </mxCell>
        <mxCell id="AOAk8VnFZfLObsQtrDsE-71" value="" style="endArrow=classic;html=1;rounded=0;entryX=1;entryY=0.5;entryDx=0;entryDy=0;exitX=0;exitY=0.5;exitDx=0;exitDy=0;" parent="1" source="AOAk8VnFZfLObsQtrDsE-48" target="AOAk8VnFZfLObsQtrDsE-49" edge="1">
          <mxGeometry width="50" height="50" relative="1" as="geometry">
            <mxPoint x="-1008" y="690.5" as="sourcePoint" />
            <mxPoint x="-958" y="640.5" as="targetPoint" />
          </mxGeometry>
        </mxCell>
        <mxCell id="AOAk8VnFZfLObsQtrDsE-72" value="" style="endArrow=classic;html=1;rounded=0;entryX=1;entryY=0.5;entryDx=0;entryDy=0;exitX=0;exitY=0.5;exitDx=0;exitDy=0;" parent="1" source="AOAk8VnFZfLObsQtrDsE-54" target="AOAk8VnFZfLObsQtrDsE-48" edge="1">
          <mxGeometry width="50" height="50" relative="1" as="geometry">
            <mxPoint x="-899" y="702.5" as="sourcePoint" />
            <mxPoint x="-849" y="652.5" as="targetPoint" />
          </mxGeometry>
        </mxCell>
        <mxCell id="AOAk8VnFZfLObsQtrDsE-73" value="Organo +" style="rhombus;whiteSpace=wrap;html=1;" parent="1" vertex="1">
          <mxGeometry x="-640" y="669.5" width="113" height="80" as="geometry" />
        </mxCell>
        <mxCell id="AOAk8VnFZfLObsQtrDsE-74" value="&lt;font style=&quot;font-size: 12px;&quot;&gt;Organo&lt;/font&gt;" style="rounded=0;whiteSpace=wrap;html=1;fontSize=16;" parent="1" vertex="1">
          <mxGeometry x="-741" y="698.5" width="92" height="22" as="geometry" />
        </mxCell>
        <mxCell id="AOAk8VnFZfLObsQtrDsE-75" value="Descarta Virus" style="rounded=0;whiteSpace=wrap;html=1;fontSize=10;fillColor=#f8cecc;strokeColor=#b85450;" parent="1" vertex="1">
          <mxGeometry x="-854" y="700.5" width="101" height="19" as="geometry" />
        </mxCell>
        <mxCell id="AOAk8VnFZfLObsQtrDsE-76" value="Roba Carta" style="rounded=0;whiteSpace=wrap;html=1;fontSize=10;fillColor=#d5e8d4;strokeColor=#82b366;" parent="1" vertex="1">
          <mxGeometry x="-967" y="700" width="101" height="19" as="geometry" />
        </mxCell>
        <mxCell id="AOAk8VnFZfLObsQtrDsE-77" value="Fin" style="rounded=1;whiteSpace=wrap;html=1;fontSize=10;fillColor=#dae8fc;gradientColor=#7ea6e0;strokeColor=#6c8ebf;" parent="1" vertex="1">
          <mxGeometry x="-1042" y="702.5" width="63" height="15" as="geometry" />
        </mxCell>
        <mxCell id="AOAk8VnFZfLObsQtrDsE-79" value="" style="endArrow=classic;html=1;rounded=0;entryX=1;entryY=0.5;entryDx=0;entryDy=0;exitX=0;exitY=0.5;exitDx=0;exitDy=0;" parent="1" source="AOAk8VnFZfLObsQtrDsE-73" target="AOAk8VnFZfLObsQtrDsE-74" edge="1">
          <mxGeometry width="50" height="50" relative="1" as="geometry">
            <mxPoint x="-657" y="709" as="sourcePoint" />
            <mxPoint x="-679" y="761" as="targetPoint" />
          </mxGeometry>
        </mxCell>
        <mxCell id="AOAk8VnFZfLObsQtrDsE-80" value="" style="endArrow=classic;html=1;rounded=0;exitX=0;exitY=0.5;exitDx=0;exitDy=0;entryX=1;entryY=0.5;entryDx=0;entryDy=0;" parent="1" source="AOAk8VnFZfLObsQtrDsE-74" target="AOAk8VnFZfLObsQtrDsE-75" edge="1">
          <mxGeometry width="50" height="50" relative="1" as="geometry">
            <mxPoint x="-797" y="817" as="sourcePoint" />
            <mxPoint x="-753" y="709.5" as="targetPoint" />
          </mxGeometry>
        </mxCell>
        <mxCell id="AOAk8VnFZfLObsQtrDsE-81" value="" style="endArrow=classic;html=1;rounded=0;entryX=1;entryY=0.5;entryDx=0;entryDy=0;exitX=0;exitY=0.5;exitDx=0;exitDy=0;" parent="1" source="AOAk8VnFZfLObsQtrDsE-76" target="AOAk8VnFZfLObsQtrDsE-77" edge="1">
          <mxGeometry width="50" height="50" relative="1" as="geometry">
            <mxPoint x="-996" y="777" as="sourcePoint" />
            <mxPoint x="-946" y="727" as="targetPoint" />
          </mxGeometry>
        </mxCell>
        <mxCell id="AOAk8VnFZfLObsQtrDsE-82" value="" style="endArrow=classic;html=1;rounded=0;entryX=1;entryY=0.5;entryDx=0;entryDy=0;exitX=0;exitY=0.5;exitDx=0;exitDy=0;" parent="1" source="AOAk8VnFZfLObsQtrDsE-75" target="AOAk8VnFZfLObsQtrDsE-76" edge="1">
          <mxGeometry width="50" height="50" relative="1" as="geometry">
            <mxPoint x="-909" y="782" as="sourcePoint" />
            <mxPoint x="-859" y="732" as="targetPoint" />
          </mxGeometry>
        </mxCell>
        <mxCell id="AOAk8VnFZfLObsQtrDsE-84" value="" style="endArrow=classic;html=1;rounded=0;exitX=0.5;exitY=1;exitDx=0;exitDy=0;entryX=0.5;entryY=0;entryDx=0;entryDy=0;" parent="1" source="AOAk8VnFZfLObsQtrDsE-28" target="AOAk8VnFZfLObsQtrDsE-73" edge="1">
          <mxGeometry width="50" height="50" relative="1" as="geometry">
            <mxPoint x="-576" y="697.5" as="sourcePoint" />
            <mxPoint x="-526" y="647.5" as="targetPoint" />
          </mxGeometry>
        </mxCell>
        <mxCell id="AOAk8VnFZfLObsQtrDsE-95" style="edgeStyle=none;curved=1;rounded=0;orthogonalLoop=1;jettySize=auto;html=1;entryX=1;entryY=0.5;entryDx=0;entryDy=0;fontSize=12;startSize=8;endSize=8;" parent="1" edge="1">
          <mxGeometry relative="1" as="geometry">
            <mxPoint x="-543.5" y="791.5" as="sourcePoint" />
            <mxPoint x="-543.5" y="791.5" as="targetPoint" />
          </mxGeometry>
        </mxCell>
        <mxCell id="AOAk8VnFZfLObsQtrDsE-96" value="Organo" style="rhombus;whiteSpace=wrap;html=1;" parent="1" vertex="1">
          <mxGeometry x="-640" y="760.5" width="113" height="80" as="geometry" />
        </mxCell>
        <mxCell id="AOAk8VnFZfLObsQtrDsE-97" value="&lt;font style=&quot;font-size: 12px;&quot;&gt;Organo*&lt;/font&gt;" style="rounded=0;whiteSpace=wrap;html=1;fontSize=16;" parent="1" vertex="1">
          <mxGeometry x="-741" y="789.5" width="92" height="22" as="geometry" />
        </mxCell>
        <mxCell id="AOAk8VnFZfLObsQtrDsE-98" value="Descarta Virus" style="rounded=0;whiteSpace=wrap;html=1;fontSize=10;fillColor=#f8cecc;strokeColor=#b85450;" parent="1" vertex="1">
          <mxGeometry x="-854" y="791.5" width="101" height="19" as="geometry" />
        </mxCell>
        <mxCell id="AOAk8VnFZfLObsQtrDsE-99" value="Roba Carta" style="rounded=0;whiteSpace=wrap;html=1;fontSize=10;fillColor=#d5e8d4;strokeColor=#82b366;" parent="1" vertex="1">
          <mxGeometry x="-967" y="791" width="101" height="19" as="geometry" />
        </mxCell>
        <mxCell id="AOAk8VnFZfLObsQtrDsE-100" value="Fin" style="rounded=1;whiteSpace=wrap;html=1;fontSize=10;fillColor=#dae8fc;gradientColor=#7ea6e0;strokeColor=#6c8ebf;" parent="1" vertex="1">
          <mxGeometry x="-1042" y="793.5" width="63" height="15" as="geometry" />
        </mxCell>
        <mxCell id="AOAk8VnFZfLObsQtrDsE-101" value="" style="endArrow=classic;html=1;rounded=0;entryX=1;entryY=0.5;entryDx=0;entryDy=0;exitX=0;exitY=0.5;exitDx=0;exitDy=0;" parent="1" source="AOAk8VnFZfLObsQtrDsE-96" target="AOAk8VnFZfLObsQtrDsE-97" edge="1">
          <mxGeometry width="50" height="50" relative="1" as="geometry">
            <mxPoint x="-657" y="800" as="sourcePoint" />
            <mxPoint x="-679" y="852" as="targetPoint" />
          </mxGeometry>
        </mxCell>
        <mxCell id="AOAk8VnFZfLObsQtrDsE-102" value="" style="endArrow=classic;html=1;rounded=0;exitX=0;exitY=0.5;exitDx=0;exitDy=0;entryX=1;entryY=0.5;entryDx=0;entryDy=0;" parent="1" source="AOAk8VnFZfLObsQtrDsE-97" target="AOAk8VnFZfLObsQtrDsE-98" edge="1">
          <mxGeometry width="50" height="50" relative="1" as="geometry">
            <mxPoint x="-797" y="908" as="sourcePoint" />
            <mxPoint x="-753" y="800.5" as="targetPoint" />
          </mxGeometry>
        </mxCell>
        <mxCell id="AOAk8VnFZfLObsQtrDsE-103" value="" style="endArrow=classic;html=1;rounded=0;entryX=1;entryY=0.5;entryDx=0;entryDy=0;exitX=0;exitY=0.5;exitDx=0;exitDy=0;" parent="1" source="AOAk8VnFZfLObsQtrDsE-99" target="AOAk8VnFZfLObsQtrDsE-100" edge="1">
          <mxGeometry width="50" height="50" relative="1" as="geometry">
            <mxPoint x="-996" y="868" as="sourcePoint" />
            <mxPoint x="-946" y="818" as="targetPoint" />
          </mxGeometry>
        </mxCell>
        <mxCell id="AOAk8VnFZfLObsQtrDsE-104" value="" style="endArrow=classic;html=1;rounded=0;entryX=1;entryY=0.5;entryDx=0;entryDy=0;exitX=0;exitY=0.5;exitDx=0;exitDy=0;" parent="1" source="AOAk8VnFZfLObsQtrDsE-98" target="AOAk8VnFZfLObsQtrDsE-99" edge="1">
          <mxGeometry width="50" height="50" relative="1" as="geometry">
            <mxPoint x="-909" y="873" as="sourcePoint" />
            <mxPoint x="-859" y="823" as="targetPoint" />
          </mxGeometry>
        </mxCell>
        <mxCell id="AOAk8VnFZfLObsQtrDsE-105" value="" style="endArrow=classic;html=1;rounded=0;exitX=0.5;exitY=1;exitDx=0;exitDy=0;entryX=0.5;entryY=0;entryDx=0;entryDy=0;" parent="1" source="AOAk8VnFZfLObsQtrDsE-73" target="AOAk8VnFZfLObsQtrDsE-96" edge="1">
          <mxGeometry width="50" height="50" relative="1" as="geometry">
            <mxPoint x="-709" y="778.5" as="sourcePoint" />
            <mxPoint x="-659" y="728.5" as="targetPoint" />
          </mxGeometry>
        </mxCell>
        <mxCell id="AOAk8VnFZfLObsQtrDsE-107" value="Organo ++" style="rhombus;whiteSpace=wrap;html=1;" parent="1" vertex="1">
          <mxGeometry x="-551.5" y="443" width="159" height="79" as="geometry" />
        </mxCell>
        <mxCell id="AOAk8VnFZfLObsQtrDsE-108" value="" style="endArrow=classic;html=1;rounded=0;exitX=0.5;exitY=1;exitDx=0;exitDy=0;entryX=0.5;entryY=0;entryDx=0;entryDy=0;" parent="1" source="AOAk8VnFZfLObsQtrDsE-107" target="AOAk8VnFZfLObsQtrDsE-22" edge="1">
          <mxGeometry width="50" height="50" relative="1" as="geometry">
            <mxPoint x="-694" y="528" as="sourcePoint" />
            <mxPoint x="-644" y="478" as="targetPoint" />
          </mxGeometry>
        </mxCell>
        <mxCell id="AOAk8VnFZfLObsQtrDsE-109" value="No" style="text;html=1;strokeColor=none;fillColor=none;align=center;verticalAlign=middle;whiteSpace=wrap;rounded=0;" parent="1" vertex="1">
          <mxGeometry x="-515" y="516" width="60" height="30" as="geometry" />
        </mxCell>
        <mxCell id="AOAk8VnFZfLObsQtrDsE-110" value="" style="endArrow=classic;html=1;rounded=0;entryX=0;entryY=0.5;entryDx=0;entryDy=0;exitX=0;exitY=0.5;exitDx=0;exitDy=0;" parent="1" source="AOAk8VnFZfLObsQtrDsE-107" target="TgOCkQb1jk0l3Reb4bXe-10" edge="1">
          <mxGeometry width="50" height="50" relative="1" as="geometry">
            <mxPoint x="-255" y="92" as="sourcePoint" />
            <mxPoint x="-205" y="42" as="targetPoint" />
            <Array as="points">
              <mxPoint x="-608" y="483" />
              <mxPoint x="-608" y="80" />
            </Array>
          </mxGeometry>
        </mxCell>
        <mxCell id="AOAk8VnFZfLObsQtrDsE-111" value="Sí" style="text;html=1;strokeColor=none;fillColor=none;align=center;verticalAlign=middle;whiteSpace=wrap;rounded=0;" parent="1" vertex="1">
          <mxGeometry x="-604" y="457" width="60" height="30" as="geometry" />
        </mxCell>
        <mxCell id="AOAk8VnFZfLObsQtrDsE-112" value="Siguiente jugador" style="text;strokeColor=none;fillColor=none;align=left;verticalAlign=middle;spacingLeft=4;spacingRight=4;overflow=hidden;points=[[0,0.5],[1,0.5]];portConstraint=eastwest;rotatable=0;whiteSpace=wrap;html=1;" parent="1" vertex="1">
          <mxGeometry x="-611" y="56" width="124" height="30" as="geometry" />
        </mxCell>
        <mxCell id="1oPqDGSfkFNlPFVxJ4dm-1" value="" style="endArrow=classic;html=1;rounded=0;exitX=1;exitY=0.5;exitDx=0;exitDy=0;entryX=0.5;entryY=0;entryDx=0;entryDy=0;" parent="1" source="AOAk8VnFZfLObsQtrDsE-22" edge="1" target="o2KptY9cjnke86jPJQZ6-1">
          <mxGeometry width="50" height="50" relative="1" as="geometry">
            <mxPoint x="-326" y="786" as="sourcePoint" />
            <mxPoint x="-400" y="720" as="targetPoint" />
          </mxGeometry>
        </mxCell>
        <mxCell id="o2KptY9cjnke86jPJQZ6-1" value="Color Virus&lt;br&gt;== Color Organo || Color Oragano Multicolor" style="rhombus;whiteSpace=wrap;html=1;" vertex="1" parent="1">
          <mxGeometry x="-485" y="608.5" width="172" height="120" as="geometry" />
        </mxCell>
        <mxCell id="o2KptY9cjnke86jPJQZ6-2" value="" style="endArrow=classic;html=1;rounded=0;exitX=0;exitY=0.5;exitDx=0;exitDy=0;entryX=0.5;entryY=0;entryDx=0;entryDy=0;" edge="1" parent="1" source="o2KptY9cjnke86jPJQZ6-1" target="AOAk8VnFZfLObsQtrDsE-28">
          <mxGeometry width="50" height="50" relative="1" as="geometry">
            <mxPoint x="-658" y="733" as="sourcePoint" />
            <mxPoint x="-608" y="683" as="targetPoint" />
            <Array as="points">
              <mxPoint x="-524" y="596" />
            </Array>
          </mxGeometry>
        </mxCell>
      </root>
    </mxGraphModel>
  </diagram>
</mxfile>
